# Blender 4.1.1
# www.blender.org
o Plane
v 0.000000 0.000000 0.000000
v 0.000000 0.401119 -0.103629
v 0.000000 0.536459 -0.028157
v 0.000000 0.560895 -0.025884
v 0.000000 0.000111 0.000000
v 0.000000 0.017773 -0.104839
v 0.000000 0.007092 -0.100499
v 0.000000 0.562622 0.000000
v -0.039657 0.401119 -0.095741
v -0.010775 0.536459 -0.026014
v -0.009905 0.560895 -0.023914
v -0.040120 0.017773 -0.096859
v -0.038459 0.007092 -0.092849
v -0.073277 0.401119 -0.073277
v -0.019910 0.536459 -0.019910
v -0.018303 0.560895 -0.018303
v -0.074132 0.017773 -0.074132
v -0.071063 0.007092 -0.071063
v -0.095741 0.401119 -0.039657
v -0.026014 0.536459 -0.010775
v -0.023914 0.560895 -0.009905
v -0.096859 0.017773 -0.040120
v -0.092849 0.007092 -0.038459
v -0.103629 0.401119 0.000000
v -0.028157 0.536459 0.000000
v -0.025884 0.560895 0.000000
v -0.104839 0.017773 0.000000
v -0.100499 0.007092 0.000000
v -0.095741 0.401119 0.039657
v -0.026014 0.536459 0.010775
v -0.023914 0.560895 0.009905
v -0.096859 0.017773 0.040120
v -0.092849 0.007092 0.038459
v -0.073277 0.401119 0.073277
v -0.019910 0.536459 0.019910
v -0.018303 0.560895 0.018303
v -0.074132 0.017773 0.074132
v -0.071063 0.007092 0.071063
v -0.039657 0.401119 0.095741
v -0.010775 0.536459 0.026014
v -0.009905 0.560895 0.023914
v -0.040120 0.017773 0.096859
v -0.038459 0.007092 0.092849
v 0.000000 0.401119 0.103629
v 0.000000 0.536459 0.028157
v 0.000000 0.560895 0.025884
v 0.000000 0.017773 0.104839
v 0.000000 0.007092 0.100499
v 0.039657 0.401119 0.095741
v 0.010775 0.536459 0.026014
v 0.009905 0.560895 0.023914
v 0.040120 0.017773 0.096859
v 0.038459 0.007092 0.092849
v 0.073277 0.401119 0.073277
v 0.019910 0.536459 0.019910
v 0.018303 0.560895 0.018303
v 0.074132 0.017773 0.074132
v 0.071063 0.007092 0.071063
v 0.095741 0.401119 0.039657
v 0.026014 0.536459 0.010775
v 0.023914 0.560895 0.009905
v 0.096859 0.017773 0.040120
v 0.092849 0.007092 0.038459
v 0.103629 0.401119 -0.000000
v 0.028157 0.536459 -0.000000
v 0.025884 0.560895 -0.000000
v 0.104839 0.017773 -0.000000
v 0.100499 0.007092 -0.000000
v 0.095741 0.401119 -0.039657
v 0.026014 0.536459 -0.010775
v 0.023914 0.560895 -0.009905
v 0.096859 0.017773 -0.040120
v 0.092849 0.007092 -0.038459
v 0.073277 0.401119 -0.073277
v 0.019910 0.536459 -0.019910
v 0.018303 0.560895 -0.018303
v 0.074132 0.017773 -0.074132
v 0.071063 0.007092 -0.071063
v 0.039657 0.401119 -0.095741
v 0.010775 0.536459 -0.026014
v 0.009905 0.560895 -0.023914
v 0.040120 0.017773 -0.096859
v 0.038459 0.007092 -0.092849
vn -0.0000 0.2458 -0.9693
vn -0.0000 0.3037 -0.9528
vn -0.0000 0.6781 -0.7350
vn -0.0000 -1.0000 -0.0000
vn -0.0000 -0.1859 -0.9826
vn -0.0000 -0.7791 -0.6269
vn -0.0000 1.0000 -0.0000
vn -0.3709 0.2458 -0.8955
vn -0.3646 0.3037 -0.8802
vn -0.2813 0.6781 -0.6791
vn -0.3760 -0.1859 -0.9078
vn -0.2399 -0.7791 -0.5792
vn -0.6854 0.2458 -0.6854
vn -0.6737 0.3037 -0.6737
vn -0.5197 0.6781 -0.5197
vn -0.6948 -0.1859 -0.6948
vn -0.4433 -0.7791 -0.4433
vn -0.8955 0.2458 -0.3709
vn -0.8802 0.3037 -0.3646
vn -0.6791 0.6781 -0.2813
vn -0.9078 -0.1859 -0.3760
vn -0.5792 -0.7791 -0.2399
vn -0.9693 0.2458 -0.0000
vn -0.9528 0.3037 -0.0000
vn -0.7350 0.6781 -0.0000
vn -0.9826 -0.1859 -0.0000
vn -0.6269 -0.7791 -0.0000
vn -0.8955 0.2458 0.3709
vn -0.8802 0.3037 0.3646
vn -0.6791 0.6781 0.2813
vn -0.9078 -0.1859 0.3760
vn -0.5792 -0.7791 0.2399
vn -0.6854 0.2458 0.6854
vn -0.6737 0.3037 0.6737
vn -0.5197 0.6781 0.5197
vn -0.6948 -0.1859 0.6948
vn -0.4433 -0.7791 0.4433
vn -0.3709 0.2458 0.8955
vn -0.3646 0.3037 0.8802
vn -0.2813 0.6781 0.6791
vn -0.3760 -0.1859 0.9078
vn -0.2399 -0.7791 0.5792
vn -0.0000 0.2458 0.9693
vn -0.0000 0.3037 0.9528
vn -0.0000 0.6781 0.7350
vn -0.0000 -0.1859 0.9826
vn -0.0000 -0.7791 0.6269
vn 0.3709 0.2458 0.8955
vn 0.3646 0.3037 0.8802
vn 0.2813 0.6781 0.6791
vn 0.3760 -0.1859 0.9078
vn 0.2399 -0.7791 0.5792
vn 0.6854 0.2458 0.6854
vn 0.6737 0.3037 0.6737
vn 0.5197 0.6781 0.5197
vn 0.6948 -0.1859 0.6948
vn 0.4433 -0.7791 0.4433
vn 0.8955 0.2458 0.3709
vn 0.8802 0.3037 0.3646
vn 0.6791 0.6781 0.2813
vn 0.9078 -0.1859 0.3760
vn 0.5792 -0.7791 0.2399
vn 0.9693 0.2458 -0.0000
vn 0.9528 0.3037 -0.0000
vn 0.7350 0.6781 -0.0000
vn 0.9826 -0.1859 -0.0000
vn 0.6269 -0.7791 -0.0000
vn 0.8955 0.2458 -0.3709
vn 0.8802 0.3037 -0.3646
vn 0.6791 0.6781 -0.2813
vn 0.9078 -0.1859 -0.3760
vn 0.5792 -0.7791 -0.2399
vn 0.6854 0.2458 -0.6854
vn 0.6737 0.3037 -0.6737
vn 0.5197 0.6781 -0.5197
vn 0.6948 -0.1859 -0.6948
vn 0.4433 -0.7791 -0.4433
vn 0.3709 0.2458 -0.8955
vn 0.3646 0.3037 -0.8802
vn 0.2813 0.6781 -0.6791
vn 0.3760 -0.1859 -0.9078
vn 0.2399 -0.7791 -0.5792
vt 0.000000 2.005594
vt 0.062500 2.005594
vt 0.062500 2.682294
vt 0.000000 2.682294
vt 0.125000 2.005594
vt 0.125000 2.682294
vt 0.187500 2.005594
vt 0.187500 2.682294
vt 0.250000 2.005594
vt 0.250000 2.682294
vt 0.312500 2.005594
vt 0.312500 2.682294
vt 0.375000 2.005594
vt 0.375000 2.682294
vt 0.437500 2.005594
vt 0.437500 2.682294
vt 0.500000 2.005594
vt 0.500000 2.682294
vt 0.562500 2.005594
vt 0.562500 2.682294
vt 0.625000 2.005594
vt 0.625000 2.682294
vt 0.687500 2.005594
vt 0.687500 2.682294
vt 0.750000 2.005594
vt 0.750000 2.682294
vt 0.812500 2.005594
vt 0.812500 2.682294
vt 0.875000 2.005594
vt 0.875000 2.682294
vt 0.937500 2.005594
vt 0.937500 2.682294
vt 1.000000 2.005594
vt 1.000000 2.682294
vt 0.062500 2.804477
vt 0.000000 2.804477
vt 0.125000 2.804477
vt 0.187500 2.804477
vt 0.250000 2.804477
vt 0.312500 2.804477
vt 0.375000 2.804477
vt 0.437500 2.804477
vt 0.500000 2.804477
vt 0.562500 2.804477
vt 0.625000 2.804477
vt 0.687500 2.804477
vt 0.750000 2.804477
vt 0.812500 2.804477
vt 0.875000 2.804477
vt 0.937500 2.804477
vt 1.000000 2.804477
vt 0.031250 0.000554
vt 0.062500 0.035459
vt 0.000000 0.035459
vt 0.093750 0.000554
vt 0.125000 0.035459
vt 0.156250 0.000554
vt 0.187500 0.035459
vt 0.218750 0.000554
vt 0.250000 0.035459
vt 0.281250 0.000554
vt 0.312500 0.035459
vt 0.343750 0.000554
vt 0.375000 0.035459
vt 0.406250 0.000554
vt 0.437500 0.035459
vt 0.468750 0.000554
vt 0.500000 0.035459
vt 0.531250 0.000554
vt 0.562500 0.035459
vt 0.593750 0.000554
vt 0.625000 0.035459
vt 0.656250 0.000554
vt 0.687500 0.035459
vt 0.718750 0.000554
vt 0.750000 0.035459
vt 0.781250 0.000554
vt 0.812500 0.035459
vt 0.843750 0.000554
vt 0.875000 0.035459
vt 0.906250 0.000554
vt 0.937500 0.035459
vt 0.968750 0.000554
vt 1.000000 0.035459
vt 0.062500 0.088865
vt 0.000000 0.088865
vt 0.125000 0.088865
vt 0.187500 0.088865
vt 0.250000 0.088865
vt 0.312500 0.088865
vt 0.375000 0.088865
vt 0.437500 0.088865
vt 0.500000 0.088865
vt 0.562500 0.088865
vt 0.625000 0.088865
vt 0.687500 0.088865
vt 0.750000 0.088865
vt 0.812500 0.088865
vt 0.875000 0.088865
vt 0.937500 0.088865
vt 1.000000 0.088865
vt 0.031250 2.813113
vt 0.093750 2.813113
vt 0.156250 2.813113
vt 0.218750 2.813113
vt 0.281250 2.813113
vt 0.343750 2.813113
vt 0.406250 2.813113
vt 0.468750 2.813113
vt 0.531250 2.813113
vt 0.593750 2.813113
vt 0.656250 2.813113
vt 0.718750 2.813113
vt 0.781250 2.813113
vt 0.843750 2.813113
vt 0.906250 2.813113
vt 0.968750 2.813113
s 1
f 2/1/1 9/2/8 10/3/9 3/4/2
f 9/2/8 14/5/13 15/6/14 10/3/9
f 14/5/13 19/7/18 20/8/19 15/6/14
f 19/7/18 24/9/23 25/10/24 20/8/19
f 24/9/23 29/11/28 30/12/29 25/10/24
f 29/11/28 34/13/33 35/14/34 30/12/29
f 34/13/33 39/15/38 40/16/39 35/14/34
f 39/15/38 44/17/43 45/18/44 40/16/39
f 44/17/43 49/19/48 50/20/49 45/18/44
f 49/19/48 54/21/53 55/22/54 50/20/49
f 54/21/53 59/23/58 60/24/59 55/22/54
f 59/23/58 64/25/63 65/26/64 60/24/59
f 64/25/63 69/27/68 70/28/69 65/26/64
f 69/27/68 74/29/73 75/30/74 70/28/69
f 74/29/73 79/31/78 80/32/79 75/30/74
f 79/31/78 2/33/1 3/34/2 80/32/79
f 3/4/2 10/3/9 11/35/10 4/36/3
f 10/3/9 15/6/14 16/37/15 11/35/10
f 15/6/14 20/8/19 21/38/20 16/37/15
f 20/8/19 25/10/24 26/39/25 21/38/20
f 25/10/24 30/12/29 31/40/30 26/39/25
f 30/12/29 35/14/34 36/41/35 31/40/30
f 35/14/34 40/16/39 41/42/40 36/41/35
f 40/16/39 45/18/44 46/43/45 41/42/40
f 45/18/44 50/20/49 51/44/50 46/43/45
f 50/20/49 55/22/54 56/45/55 51/44/50
f 55/22/54 60/24/59 61/46/60 56/45/55
f 60/24/59 65/26/64 66/47/65 61/46/60
f 65/26/64 70/28/69 71/48/70 66/47/65
f 70/28/69 75/30/74 76/49/75 71/48/70
f 75/30/74 80/32/79 81/50/80 76/49/75
f 80/32/79 3/34/2 4/51/3 81/50/80
f 5/52/4 13/53/12 7/54/6
f 5/55/4 18/56/17 13/53/12
f 5/57/4 23/58/22 18/56/17
f 5/59/4 28/60/27 23/58/22
f 5/61/4 33/62/32 28/60/27
f 5/63/4 38/64/37 33/62/32
f 5/65/4 43/66/42 38/64/37
f 5/67/4 48/68/47 43/66/42
f 5/69/4 53/70/52 48/68/47
f 5/71/4 58/72/57 53/70/52
f 5/73/4 63/74/62 58/72/57
f 5/75/4 68/76/67 63/74/62
f 5/77/4 73/78/72 68/76/67
f 5/79/4 78/80/77 73/78/72
f 5/81/4 83/82/82 78/80/77
f 5/83/4 7/84/6 83/82/82
f 7/54/6 13/53/12 12/85/11 6/86/5
f 13/53/12 18/56/17 17/87/16 12/85/11
f 18/56/17 23/58/22 22/88/21 17/87/16
f 23/58/22 28/60/27 27/89/26 22/88/21
f 28/60/27 33/62/32 32/90/31 27/89/26
f 33/62/32 38/64/37 37/91/36 32/90/31
f 38/64/37 43/66/42 42/92/41 37/91/36
f 43/66/42 48/68/47 47/93/46 42/92/41
f 48/68/47 53/70/52 52/94/51 47/93/46
f 53/70/52 58/72/57 57/95/56 52/94/51
f 58/72/57 63/74/62 62/96/61 57/95/56
f 63/74/62 68/76/67 67/97/66 62/96/61
f 68/76/67 73/78/72 72/98/71 67/97/66
f 73/78/72 78/80/77 77/99/76 72/98/71
f 78/80/77 83/82/82 82/100/81 77/99/76
f 83/82/82 7/84/6 6/101/5 82/100/81
f 6/86/5 12/85/11 9/2/8 2/1/1
f 12/85/11 17/87/16 14/5/13 9/2/8
f 17/87/16 22/88/21 19/7/18 14/5/13
f 22/88/21 27/89/26 24/9/23 19/7/18
f 27/89/26 32/90/31 29/11/28 24/9/23
f 32/90/31 37/91/36 34/13/33 29/11/28
f 37/91/36 42/92/41 39/15/38 34/13/33
f 42/92/41 47/93/46 44/17/43 39/15/38
f 47/93/46 52/94/51 49/19/48 44/17/43
f 52/94/51 57/95/56 54/21/53 49/19/48
f 57/95/56 62/96/61 59/23/58 54/21/53
f 62/96/61 67/97/66 64/25/63 59/23/58
f 67/97/66 72/98/71 69/27/68 64/25/63
f 72/98/71 77/99/76 74/29/73 69/27/68
f 77/99/76 82/100/81 79/31/78 74/29/73
f 82/100/81 6/101/5 2/33/1 79/31/78
f 4/36/3 11/35/10 8/102/7
f 11/35/10 16/37/15 8/103/7
f 16/37/15 21/38/20 8/104/7
f 21/38/20 26/39/25 8/105/7
f 26/39/25 31/40/30 8/106/7
f 31/40/30 36/41/35 8/107/7
f 36/41/35 41/42/40 8/108/7
f 41/42/40 46/43/45 8/109/7
f 46/43/45 51/44/50 8/110/7
f 51/44/50 56/45/55 8/111/7
f 56/45/55 61/46/60 8/112/7
f 61/46/60 66/47/65 8/113/7
f 66/47/65 71/48/70 8/114/7
f 71/48/70 76/49/75 8/115/7
f 76/49/75 81/50/80 8/116/7
f 81/50/80 4/51/3 8/117/7
l 5 1
