# Blender 4.1.1
# www.blender.org
o Cube
v -0.575340 -0.015269 0.575340
v -0.572505 0.765119 0.581842
v -0.575340 -0.015269 -0.575340
v -0.572505 0.765119 -0.581842
v 0.575340 -0.015269 0.575340
v 0.572505 0.765119 0.581842
v 0.575340 -0.015269 -0.575340
v 0.572505 0.765119 -0.581842
v -0.558020 1.124599 1.017829
v -0.558020 1.124599 -1.017829
v 0.558020 1.124599 1.017829
v 0.558020 1.124599 -1.017829
v -0.558020 0.002051 0.558020
v -0.558020 0.776194 0.558020
v -0.558020 0.002051 -0.558020
v -0.558020 0.776194 -0.558020
v 0.558020 0.002051 0.558020
v 0.558020 0.776194 0.558020
v 0.558020 0.002051 -0.558020
v 0.558020 0.776194 -0.558020
v -0.558020 1.147536 0.998492
v -0.558020 1.147536 -0.998492
v 0.558020 1.147536 0.998492
v 0.558020 1.147536 -0.998492
vn -1.0000 0.0036 -0.0000
vn -0.0000 -0.0083 -1.0000
vn 1.0000 0.0036 -0.0000
vn -0.0000 -0.0083 1.0000
vn -0.0000 -1.0000 -0.0000
vn -0.0000 -0.7716 0.6362
vn -0.0000 -0.7716 -0.6362
vn 1.0000 -0.0000 -0.0000
vn -0.0000 -0.0000 1.0000
vn -1.0000 -0.0000 -0.0000
vn -0.0000 -0.0000 -1.0000
vn -0.0000 1.0000 -0.0000
vn -0.0000 0.7646 -0.6446
vn -0.0000 0.7646 0.6446
vn -0.6074 0.7944 -0.0000
vn 0.6074 0.7944 -0.0000
vn -0.0000 0.6446 -0.7646
vn -0.0000 0.6446 0.7646
vn -0.9648 0.2095 -0.1587
vn 0.9648 0.2095 -0.1587
vn 0.9648 0.2095 0.1587
vn -0.9648 0.2095 0.1587
vt 0.375000 0.000000
vt 0.625000 0.000000
vt 0.625000 0.250000
vt 0.375000 0.250000
vt 0.625000 0.500000
vt 0.375000 0.500000
vt 0.625000 0.750000
vt 0.375000 0.750000
vt 0.625000 1.000000
vt 0.375000 1.000000
vt 0.125000 0.500000
vt 0.125000 0.750000
s 0
f 1/1/1 2/2/1 4/3/1 3/4/1
f 3/4/2 4/3/2 8/5/2 7/6/2
f 7/6/3 8/5/3 6/7/3 5/8/3
f 5/8/4 6/7/4 2/9/4 1/10/4
f 3/11/5 7/6/5 5/8/5 1/12/5
f 2/9/6 6/7/6 11/7/6 9/9/6
f 8/5/7 4/3/7 10/3/7 12/5/7
f 13/1/8 15/4/8 16/3/8 14/2/8
f 15/4/9 19/6/9 20/5/9 16/3/9
f 19/6/10 17/8/10 18/7/10 20/5/10
f 17/8/11 13/10/11 14/9/11 18/7/11
f 15/11/12 13/12/12 17/8/12 19/6/12
f 14/9/13 21/9/13 23/7/13 18/7/13
f 20/5/14 24/5/14 22/3/14 16/3/14
f 4/3/15 2/2/15 14/2/15 16/3/15
f 6/7/16 8/5/16 20/5/16 18/7/16
f 12/5/17 10/3/17 22/3/17 24/5/17
f 9/9/18 11/7/18 23/7/18 21/9/18
f 2/9/19 9/9/19 21/9/19 14/9/19
f 11/7/20 6/7/20 18/7/20 23/7/20
f 8/5/21 12/5/21 24/5/21 20/5/21
f 10/3/22 4/3/22 16/3/22 22/3/22
